# xmcd
#
# Track frame offsets:
# 150
# 74225
# 181058
#
# Disc length: 3407 seconds
#
#
# Revision: 0
# Processed by: cddbd v1.5.2PL0 Copyright (c) Steve Scherf et al.
# Submitted via: FreeRIP 2.53 
#
DISCID=270d4d03
DTITLE=Jorma Kaukenon - Relix Bay Rock Shop #3
DYEAR=1993
DGENRE=Progressive Rock
TTITLE0=Open/Conversation/Song: 'Walkin Blues'/Conversation...
TTITLE1=Open/Song: 'Embryonic Journey'/Conversation/Song: 'Death Don't Have No Mercy'
TTITLE2=Open/Song: 'New Song'/Conversation/Song: 'I'll Be Alright'/Conversation/Song: 'Whinin'
EXTD=An interview with music
EXTT0=
EXTT1=
EXTT2=
PLAYORDER=
